<svg width="92" height="92" viewBox="0 0 92 92" fill="none" xmlns="http://www.w3.org/2000/svg">
<path d="M69.271 31.2947C67.7519 31.9485 66.1549 32.4037 64.5195 32.6492C65.2841 32.5181 66.4091 31.1418 66.857 30.5847C67.5373 29.7444 68.0559 28.7852 68.3862 27.7557C68.3862 27.6792 68.4627 27.57 68.3862 27.5154C68.3477 27.4943 68.3045 27.4833 68.2606 27.4833C68.2167 27.4833 68.1735 27.4943 68.135 27.5154C66.3591 28.4771 64.4691 29.211 62.5096 29.7C62.4413 29.7208 62.3687 29.7227 62.2994 29.7054C62.2301 29.6881 62.1668 29.6522 62.1164 29.6017C61.9639 29.42 61.7997 29.2485 61.6249 29.0883C60.8257 28.3722 59.9189 27.7862 58.9378 27.3515C57.6135 26.8082 56.183 26.5729 54.7543 26.6634C53.3681 26.7509 52.0147 27.1227 50.7784 27.7557C49.5609 28.423 48.4908 29.3295 47.6326 30.4209C46.7298 31.5441 46.078 32.8477 45.721 34.2439C45.4267 35.572 45.3933 36.9446 45.6227 38.2854C45.6227 38.5148 45.6227 38.5476 45.4261 38.5148C37.638 37.3679 31.2481 34.6044 26.0269 28.6732C25.7975 28.4111 25.6774 28.4111 25.4917 28.6732C23.2197 32.1249 24.3229 37.5863 27.1629 40.2843C27.5452 40.6448 27.9384 40.9943 28.3535 41.322C27.0514 41.2296 25.7811 40.8767 24.6179 40.2843C24.3994 40.1423 24.2792 40.2188 24.2683 40.4809C24.2374 40.8444 24.2374 41.2098 24.2683 41.5732C24.4962 43.315 25.1827 44.965 26.2574 46.3545C27.3321 47.744 28.7566 48.8231 30.3852 49.4815C30.7822 49.6515 31.1959 49.7796 31.6195 49.8638C30.414 50.1011 29.1777 50.138 27.9603 49.973C27.6981 49.9184 27.5998 50.0604 27.6981 50.3116C29.3038 54.6808 32.7882 56.0134 35.3442 56.7562C35.6937 56.8108 36.0433 56.8108 36.4365 56.8982C36.4365 56.8982 36.4365 56.8982 36.371 56.9637C35.6173 58.34 32.5698 59.2684 31.1716 59.7491C28.6197 60.6657 25.8988 61.0161 23.1979 60.7758C22.7719 60.7103 22.6736 60.7212 22.5643 60.7758C22.4551 60.8304 22.5643 60.9506 22.6845 61.0598C23.2306 61.4203 23.7768 61.737 24.3448 62.0429C26.0357 62.9652 27.8234 63.6978 29.6752 64.2275C39.2656 66.8708 50.0575 64.9265 57.2557 57.772C62.9138 52.1576 64.9018 44.4132 64.9018 36.6579C64.9018 36.363 65.2622 36.1882 65.4698 36.0353C66.9012 34.9199 68.1632 33.6027 69.2163 32.1249C69.3987 31.9046 69.4922 31.6241 69.4785 31.3384C69.4785 31.1746 69.4785 31.2073 69.271 31.2947Z" fill="#33CCFF"/>
</svg>
