<svg width="92" height="92" viewBox="0 0 92 92" fill="none" xmlns="http://www.w3.org/2000/svg">
<path d="M37.6248 45.9999C37.6248 41.3757 41.3747 37.626 46.0017 37.626C50.6287 37.626 54.3806 41.3757 54.3806 45.9999C54.3806 50.6241 50.6287 54.3738 46.0017 54.3738C41.3747 54.3738 37.6248 50.6241 37.6248 45.9999ZM33.0953 45.9999C33.0953 53.1238 38.8735 58.8985 46.0017 58.8985C53.1299 58.8985 58.9081 53.1238 58.9081 45.9999C58.9081 38.8759 53.1299 33.1012 46.0017 33.1012C38.8735 33.1012 33.0953 38.8759 33.0953 45.9999ZM56.4029 32.5898C56.4026 33.186 56.5793 33.7688 56.9105 34.2647C57.2417 34.7605 57.7126 35.1471 58.2637 35.3754C58.8147 35.6038 59.4211 35.6638 60.0063 35.5477C60.5914 35.4316 61.1289 35.1447 61.5509 34.7233C61.9729 34.3019 62.2604 33.7649 62.377 33.1803C62.4936 32.5956 62.4341 31.9895 62.2061 31.4386C61.978 30.8877 61.5916 30.4167 61.0957 30.0853C60.5998 29.7539 60.0168 29.5769 59.4202 29.5766H59.419C58.6194 29.577 57.8526 29.8946 57.2871 30.4595C56.7216 31.0245 56.4035 31.7907 56.4029 32.5898ZM35.8473 66.4467C33.3967 66.3351 32.0648 65.9272 31.1797 65.5826C30.0062 65.126 29.1689 64.5822 28.2886 63.7036C27.4082 62.825 26.8633 61.989 26.4085 60.8163C26.0634 59.932 25.6552 58.6005 25.5438 56.1514C25.422 53.5036 25.3977 52.7082 25.3977 46.0001C25.3977 39.2919 25.424 38.4987 25.5438 35.8487C25.6554 33.3997 26.0666 32.0707 26.4085 31.1839C26.8653 30.0111 27.4094 29.1743 28.2886 28.2945C29.1677 27.4147 30.0042 26.8702 31.1797 26.4156C32.0644 26.0707 33.3967 25.6628 35.8473 25.5515C38.4967 25.4297 39.2925 25.4054 46.0017 25.4054C52.7109 25.4054 53.5075 25.4317 56.1591 25.5515C58.6097 25.663 59.9394 26.074 60.8268 26.4156C62.0003 26.8702 62.8375 27.416 63.7179 28.2945C64.5982 29.1731 65.1411 30.0111 65.5979 31.1839C65.943 32.0681 66.3512 33.3997 66.4626 35.8487C66.5844 38.4987 66.6088 39.2919 66.6088 46.0001C66.6088 52.7082 66.5844 53.5014 66.4626 56.1514C66.351 58.6005 65.9408 59.9316 65.5979 60.8163C65.1411 61.989 64.597 62.8258 63.7179 63.7036C62.8388 64.5814 62.0003 65.126 60.8268 65.5826C59.942 65.9274 58.6097 66.3353 56.1591 66.4467C53.5097 66.5685 52.7139 66.5928 46.0017 66.5928C39.2895 66.5928 38.4959 66.5685 35.8473 66.4467ZM35.6392 21.0323C32.9634 21.1541 31.135 21.5781 29.5383 22.1991C27.8846 22.8404 26.4847 23.7007 25.0858 25.0965C23.6869 26.4924 22.8283 27.8936 22.1866 29.5463C21.5653 31.1431 21.141 32.9694 21.0192 35.6435C20.8953 38.3219 20.867 39.1782 20.867 45.9999C20.867 52.8216 20.8953 53.6778 21.0192 56.3562C21.141 59.0305 21.5653 60.8566 22.1866 62.4535C22.8283 64.1051 23.6871 65.508 25.0858 66.9032C26.4845 68.2985 27.8846 69.1576 29.5383 69.8007C31.138 70.4216 32.9634 70.8456 35.6392 70.9674C38.3205 71.0892 39.1759 71.1195 46.0017 71.1195C52.8275 71.1195 53.6843 71.0912 56.3642 70.9674C59.0402 70.8456 60.8674 70.4216 62.4652 69.8007C64.1178 69.1576 65.5187 68.2991 66.9176 66.9032C68.3165 65.5074 69.1733 64.1051 69.8168 62.4535C70.4381 60.8566 70.8644 59.0303 70.9842 56.3562C71.1061 53.6758 71.1344 52.8216 71.1344 45.9999C71.1344 39.1782 71.1061 38.3219 70.9842 35.6435C70.8624 32.9692 70.4381 31.1421 69.8168 29.5463C69.1733 27.8946 68.3143 26.4946 66.9176 25.0965C65.5209 23.6984 64.1178 22.8404 62.4672 22.1991C60.8674 21.5781 59.04 21.1521 56.3663 21.0323C53.6863 20.9106 52.8295 20.8802 46.0037 20.8802C39.1779 20.8802 38.3205 20.9086 35.6392 21.0323Z" fill="url(#paint0_radial_87_47)"/>
<path d="M37.6248 45.9999C37.6248 41.3757 41.3747 37.626 46.0017 37.626C50.6287 37.626 54.3806 41.3757 54.3806 45.9999C54.3806 50.6241 50.6287 54.3738 46.0017 54.3738C41.3747 54.3738 37.6248 50.6241 37.6248 45.9999ZM33.0953 45.9999C33.0953 53.1238 38.8735 58.8985 46.0017 58.8985C53.1299 58.8985 58.9081 53.1238 58.9081 45.9999C58.9081 38.8759 53.1299 33.1012 46.0017 33.1012C38.8735 33.1012 33.0953 38.8759 33.0953 45.9999ZM56.4029 32.5898C56.4026 33.186 56.5793 33.7688 56.9105 34.2647C57.2417 34.7605 57.7126 35.1471 58.2637 35.3754C58.8147 35.6038 59.4211 35.6638 60.0063 35.5477C60.5914 35.4316 61.1289 35.1447 61.5509 34.7233C61.9729 34.3019 62.2604 33.7649 62.377 33.1803C62.4936 32.5956 62.4341 31.9895 62.2061 31.4386C61.978 30.8877 61.5916 30.4167 61.0957 30.0853C60.5998 29.7539 60.0168 29.5769 59.4202 29.5766H59.419C58.6194 29.577 57.8526 29.8946 57.2871 30.4595C56.7216 31.0245 56.4035 31.7907 56.4029 32.5898ZM35.8473 66.4467C33.3967 66.3351 32.0648 65.9272 31.1797 65.5826C30.0062 65.126 29.1689 64.5822 28.2886 63.7036C27.4082 62.825 26.8633 61.989 26.4085 60.8163C26.0634 59.932 25.6552 58.6005 25.5438 56.1514C25.422 53.5036 25.3977 52.7082 25.3977 46.0001C25.3977 39.2919 25.424 38.4987 25.5438 35.8487C25.6554 33.3997 26.0666 32.0707 26.4085 31.1839C26.8653 30.0111 27.4094 29.1743 28.2886 28.2945C29.1677 27.4147 30.0042 26.8702 31.1797 26.4156C32.0644 26.0707 33.3967 25.6628 35.8473 25.5515C38.4967 25.4297 39.2925 25.4054 46.0017 25.4054C52.7109 25.4054 53.5075 25.4317 56.1591 25.5515C58.6097 25.663 59.9394 26.074 60.8268 26.4156C62.0003 26.8702 62.8375 27.416 63.7179 28.2945C64.5982 29.1731 65.1411 30.0111 65.5979 31.1839C65.943 32.0681 66.3512 33.3997 66.4626 35.8487C66.5844 38.4987 66.6088 39.2919 66.6088 46.0001C66.6088 52.7082 66.5844 53.5014 66.4626 56.1514C66.351 58.6005 65.9408 59.9316 65.5979 60.8163C65.1411 61.989 64.597 62.8258 63.7179 63.7036C62.8388 64.5814 62.0003 65.126 60.8268 65.5826C59.942 65.9274 58.6097 66.3353 56.1591 66.4467C53.5097 66.5685 52.7139 66.5928 46.0017 66.5928C39.2895 66.5928 38.4959 66.5685 35.8473 66.4467ZM35.6392 21.0323C32.9634 21.1541 31.135 21.5781 29.5383 22.1991C27.8846 22.8404 26.4847 23.7007 25.0858 25.0965C23.6869 26.4924 22.8283 27.8936 22.1866 29.5463C21.5653 31.1431 21.141 32.9694 21.0192 35.6435C20.8953 38.3219 20.867 39.1782 20.867 45.9999C20.867 52.8216 20.8953 53.6778 21.0192 56.3562C21.141 59.0305 21.5653 60.8566 22.1866 62.4535C22.8283 64.1051 23.6871 65.508 25.0858 66.9032C26.4845 68.2985 27.8846 69.1576 29.5383 69.8007C31.138 70.4216 32.9634 70.8456 35.6392 70.9674C38.3205 71.0892 39.1759 71.1195 46.0017 71.1195C52.8275 71.1195 53.6843 71.0912 56.3642 70.9674C59.0402 70.8456 60.8674 70.4216 62.4652 69.8007C64.1178 69.1576 65.5187 68.2991 66.9176 66.9032C68.3165 65.5074 69.1733 64.1051 69.8168 62.4535C70.4381 60.8566 70.8644 59.0303 70.9842 56.3562C71.1061 53.6758 71.1344 52.8216 71.1344 45.9999C71.1344 39.1782 71.1061 38.3219 70.9842 35.6435C70.8624 32.9692 70.4381 31.1421 69.8168 29.5463C69.1733 27.8946 68.3143 26.4946 66.9176 25.0965C65.5209 23.6984 64.1178 22.8404 62.4672 22.1991C60.8674 21.5781 59.04 21.1521 56.3663 21.0323C53.6863 20.9106 52.8295 20.8802 46.0037 20.8802C39.1779 20.8802 38.3205 20.9086 35.6392 21.0323Z" fill="url(#paint1_radial_87_47)"/>
<defs>
<radialGradient id="paint0_radial_87_47" cx="0" cy="0" r="1" gradientUnits="userSpaceOnUse" gradientTransform="translate(27.5456 71.3569) scale(65.6225 65.5832)">
<stop offset="0.09" stop-color="#FA8F21"/>
<stop offset="0.78" stop-color="#D82D7E"/>
</radialGradient>
<radialGradient id="paint1_radial_87_47" cx="0" cy="0" r="1" gradientUnits="userSpaceOnUse" gradientTransform="translate(51.3532 73.6076) scale(51.7196 51.6886)">
<stop offset="0.64" stop-color="#8C3AAA" stop-opacity="0"/>
<stop offset="1" stop-color="#8C3AAA"/>
</radialGradient>
</defs>
</svg>
