<svg width="92" height="92" viewBox="0 0 92 92" fill="none" xmlns="http://www.w3.org/2000/svg">
<path d="M37.6247 45.9998C37.6247 41.3755 41.3746 37.6259 46.0016 37.6259C50.6286 37.6259 54.3805 41.3755 54.3805 45.9998C54.3805 50.624 50.6286 54.3736 46.0016 54.3736C41.3746 54.3736 37.6247 50.624 37.6247 45.9998ZM33.0952 45.9998C33.0952 53.1237 38.8734 58.8984 46.0016 58.8984C53.1298 58.8984 58.9079 53.1237 58.9079 45.9998C58.9079 38.8758 53.1298 33.1011 46.0016 33.1011C38.8734 33.1011 33.0952 38.8758 33.0952 45.9998ZM56.4027 32.5897C56.4025 33.1859 56.5791 33.7688 56.9104 34.2646C57.2416 34.7604 57.7125 35.147 58.2635 35.3754C58.8146 35.6037 59.421 35.6637 60.0061 35.5476C60.5912 35.4315 61.1288 35.1446 61.5508 34.7232C61.9727 34.3018 62.2602 33.7649 62.3768 33.1802C62.4934 32.5955 62.434 31.9894 62.2059 31.4385C61.9778 30.8876 61.5914 30.4167 61.0956 30.0852C60.5997 29.7538 60.0166 29.5768 59.4201 29.5766H59.4189C58.6193 29.5769 57.8525 29.8945 57.287 30.4594C56.7214 31.0244 56.4034 31.7906 56.4027 32.5897ZM35.8472 66.4465C33.3966 66.335 32.0647 65.927 31.1796 65.5824C30.0061 65.1258 29.1688 64.582 28.2885 63.7034C27.4082 62.8249 26.8632 61.9889 26.4084 60.8161C26.0634 59.9319 25.6552 58.6003 25.5438 56.1513C25.4219 53.5035 25.3976 52.7081 25.3976 46C25.3976 39.2918 25.4239 38.4986 25.5438 35.8486C25.6554 33.3996 26.0666 32.0706 26.4084 31.1838C26.8653 30.011 27.4094 29.1743 28.2885 28.2945C29.1676 27.4147 30.0041 26.8701 31.1796 26.4155C32.0643 26.0707 33.3966 25.6627 35.8472 25.5514C38.4966 25.4296 39.2924 25.4053 46.0016 25.4053C52.7107 25.4053 53.5074 25.4316 56.159 25.5514C58.6095 25.6629 59.9393 26.0739 60.8266 26.4155C62.0001 26.8701 62.8374 27.4159 63.7177 28.2945C64.598 29.173 65.1409 30.011 65.5978 31.1838C65.9428 32.068 66.351 33.3996 66.4624 35.8486C66.5843 38.4986 66.6086 39.2918 66.6086 46C66.6086 52.7081 66.5843 53.5013 66.4624 56.1513C66.3508 58.6003 65.9406 59.9315 65.5978 60.8161C65.1409 61.9889 64.5968 62.8257 63.7177 63.7034C62.8386 64.5812 62.0001 65.1258 60.8266 65.5824C59.9419 65.9272 58.6095 66.3352 56.159 66.4465C53.5096 66.5683 52.7137 66.5926 46.0016 66.5926C39.2894 66.5926 38.4958 66.5683 35.8472 66.4465ZM35.6391 21.0323C32.9633 21.1541 31.1349 21.5781 29.5382 22.199C27.8845 22.8403 26.4846 23.7006 25.0857 25.0964C23.6868 26.4923 22.8282 27.8936 22.1866 29.5462C21.5653 31.143 21.141 32.9693 21.0191 35.6435C20.8953 38.3218 20.8669 39.1781 20.8669 45.9998C20.8669 52.8214 20.8953 53.6777 21.0191 56.3561C21.141 59.0304 21.5653 60.8565 22.1866 62.4533C22.8282 64.1049 23.687 65.5078 25.0857 66.9031C26.4844 68.2983 27.8845 69.1574 29.5382 69.8005C31.1379 70.4214 32.9633 70.8454 35.6391 70.9672C38.3204 71.089 39.1758 71.1193 46.0016 71.1193C52.8273 71.1193 53.6841 71.091 56.3641 70.9672C59.04 70.8454 60.8672 70.4214 62.465 69.8005C64.1176 69.1574 65.5185 68.2989 66.9174 66.9031C68.3163 65.5072 69.1731 64.1049 69.8166 62.4533C70.4379 60.8565 70.8642 59.0302 70.984 56.3561C71.1059 53.6757 71.1342 52.8214 71.1342 45.9998C71.1342 39.1781 71.1059 38.3218 70.984 35.6435C70.8622 32.9691 70.4379 31.142 69.8166 29.5462C69.1731 27.8946 68.3141 26.4945 66.9174 25.0964C65.5208 23.6984 64.1176 22.8403 62.467 22.199C60.8672 21.5781 59.0398 21.1521 56.3661 21.0323C53.6862 20.9105 52.8294 20.8802 46.0036 20.8802C39.1778 20.8802 38.3204 20.9085 35.6391 21.0323Z" fill="url(#paint0_radial_87_62)"/>
<path d="M37.6247 45.9998C37.6247 41.3755 41.3746 37.6259 46.0016 37.6259C50.6286 37.6259 54.3805 41.3755 54.3805 45.9998C54.3805 50.624 50.6286 54.3736 46.0016 54.3736C41.3746 54.3736 37.6247 50.624 37.6247 45.9998ZM33.0952 45.9998C33.0952 53.1237 38.8734 58.8984 46.0016 58.8984C53.1298 58.8984 58.9079 53.1237 58.9079 45.9998C58.9079 38.8758 53.1298 33.1011 46.0016 33.1011C38.8734 33.1011 33.0952 38.8758 33.0952 45.9998ZM56.4027 32.5897C56.4025 33.1859 56.5791 33.7688 56.9104 34.2646C57.2416 34.7604 57.7125 35.147 58.2635 35.3754C58.8146 35.6037 59.421 35.6637 60.0061 35.5476C60.5912 35.4315 61.1288 35.1446 61.5508 34.7232C61.9727 34.3018 62.2602 33.7649 62.3768 33.1802C62.4934 32.5955 62.434 31.9894 62.2059 31.4385C61.9778 30.8876 61.5914 30.4167 61.0956 30.0852C60.5997 29.7538 60.0166 29.5768 59.4201 29.5766H59.4189C58.6193 29.5769 57.8525 29.8945 57.287 30.4594C56.7214 31.0244 56.4034 31.7906 56.4027 32.5897ZM35.8472 66.4465C33.3966 66.335 32.0647 65.927 31.1796 65.5824C30.0061 65.1258 29.1688 64.582 28.2885 63.7034C27.4082 62.8249 26.8632 61.9889 26.4084 60.8161C26.0634 59.9319 25.6552 58.6003 25.5438 56.1513C25.4219 53.5035 25.3976 52.7081 25.3976 46C25.3976 39.2918 25.4239 38.4986 25.5438 35.8486C25.6554 33.3996 26.0666 32.0706 26.4084 31.1838C26.8653 30.011 27.4094 29.1743 28.2885 28.2945C29.1676 27.4147 30.0041 26.8701 31.1796 26.4155C32.0643 26.0707 33.3966 25.6627 35.8472 25.5514C38.4966 25.4296 39.2924 25.4053 46.0016 25.4053C52.7107 25.4053 53.5074 25.4316 56.159 25.5514C58.6095 25.6629 59.9393 26.0739 60.8266 26.4155C62.0001 26.8701 62.8374 27.4159 63.7177 28.2945C64.598 29.173 65.1409 30.011 65.5978 31.1838C65.9428 32.068 66.351 33.3996 66.4624 35.8486C66.5843 38.4986 66.6086 39.2918 66.6086 46C66.6086 52.7081 66.5843 53.5013 66.4624 56.1513C66.3508 58.6003 65.9406 59.9315 65.5978 60.8161C65.1409 61.9889 64.5968 62.8257 63.7177 63.7034C62.8386 64.5812 62.0001 65.1258 60.8266 65.5824C59.9419 65.9272 58.6095 66.3352 56.159 66.4465C53.5096 66.5683 52.7137 66.5926 46.0016 66.5926C39.2894 66.5926 38.4958 66.5683 35.8472 66.4465ZM35.6391 21.0323C32.9633 21.1541 31.1349 21.5781 29.5382 22.199C27.8845 22.8403 26.4846 23.7006 25.0857 25.0964C23.6868 26.4923 22.8282 27.8936 22.1866 29.5462C21.5653 31.143 21.141 32.9693 21.0191 35.6435C20.8953 38.3218 20.8669 39.1781 20.8669 45.9998C20.8669 52.8214 20.8953 53.6777 21.0191 56.3561C21.141 59.0304 21.5653 60.8565 22.1866 62.4533C22.8282 64.1049 23.687 65.5078 25.0857 66.9031C26.4844 68.2983 27.8845 69.1574 29.5382 69.8005C31.1379 70.4214 32.9633 70.8454 35.6391 70.9672C38.3204 71.089 39.1758 71.1193 46.0016 71.1193C52.8273 71.1193 53.6841 71.091 56.3641 70.9672C59.04 70.8454 60.8672 70.4214 62.465 69.8005C64.1176 69.1574 65.5185 68.2989 66.9174 66.9031C68.3163 65.5072 69.1731 64.1049 69.8166 62.4533C70.4379 60.8565 70.8642 59.0302 70.984 56.3561C71.1059 53.6757 71.1342 52.8214 71.1342 45.9998C71.1342 39.1781 71.1059 38.3218 70.984 35.6435C70.8622 32.9691 70.4379 31.142 69.8166 29.5462C69.1731 27.8946 68.3141 26.4945 66.9174 25.0964C65.5208 23.6984 64.1176 22.8403 62.467 22.199C60.8672 21.5781 59.0398 21.1521 56.3661 21.0323C53.6862 20.9105 52.8294 20.8802 46.0036 20.8802C39.1778 20.8802 38.3204 20.9085 35.6391 21.0323Z" fill="url(#paint1_radial_87_62)"/>
<defs>
<radialGradient id="paint0_radial_87_62" cx="0" cy="0" r="1" gradientUnits="userSpaceOnUse" gradientTransform="translate(27.5455 71.3567) scale(65.6224 65.583)">
<stop offset="0.09" stop-color="#FA8F21"/>
<stop offset="0.78" stop-color="#D82D7E"/>
</radialGradient>
<radialGradient id="paint1_radial_87_62" cx="0" cy="0" r="1" gradientUnits="userSpaceOnUse" gradientTransform="translate(51.353 73.6074) scale(51.7195 51.6885)">
<stop offset="0.64" stop-color="#8C3AAA" stop-opacity="0"/>
<stop offset="1" stop-color="#8C3AAA"/>
</radialGradient>
</defs>
</svg>
