<svg width="92" height="92" viewBox="0 0 92 92" fill="none" xmlns="http://www.w3.org/2000/svg">
<path d="M62.7738 30.7083C68.1948 38.728 70.872 47.774 69.8712 58.188C69.867 58.232 69.8442 58.2725 69.8082 58.2991C65.703 61.3321 61.7256 63.1728 57.804 64.3935C57.7735 64.4028 57.7408 64.4023 57.7106 64.392C57.6803 64.3818 57.6541 64.3622 57.6354 64.3362C56.7294 63.0678 55.9062 61.7306 55.185 60.3263C55.1436 60.2436 55.1814 60.144 55.2666 60.1114C56.574 59.6158 57.8172 59.0217 59.013 58.3184C59.1072 58.2628 59.1132 58.127 59.0262 58.0618C58.7724 57.8722 58.521 57.673 58.2804 57.4738C58.2354 57.437 58.1748 57.4297 58.1238 57.4545C50.3604 61.0616 41.856 61.0616 34.0008 57.4545C33.9498 57.4315 33.8892 57.4394 33.8454 57.4756C33.6054 57.6748 33.3534 57.8722 33.102 58.0618C33.015 58.127 33.0222 58.2628 33.117 58.3184C34.3128 59.0084 35.556 59.6158 36.8616 60.1138C36.9462 60.1464 36.9864 60.2436 36.9444 60.3263C36.2388 61.7324 35.4156 63.0696 34.4928 64.338C34.4526 64.3893 34.3866 64.4128 34.3242 64.3935C30.4212 63.1728 26.4438 61.3321 22.3386 58.2991C22.3044 58.2725 22.2798 58.2302 22.2762 58.1862C21.4398 49.1782 23.1444 40.0573 29.367 30.7064C29.382 30.6817 29.4048 30.6624 29.4312 30.6509C32.493 29.237 35.7732 28.1968 39.2016 27.6028C39.264 27.5931 39.3264 27.6221 39.3588 27.6776C39.7824 28.4323 40.2666 29.4 40.5942 30.1909C44.208 29.6355 47.8782 29.6355 51.5676 30.1909C51.8952 29.4169 52.3626 28.4323 52.7844 27.6776C52.7994 27.6501 52.8227 27.628 52.8509 27.6146C52.8792 27.6011 52.9109 27.597 52.9416 27.6028C56.3718 28.1986 59.652 29.2388 62.7114 30.6509C62.7384 30.6624 62.7606 30.6817 62.7738 30.7083ZM42.4314 47.8355C42.4692 45.1726 40.5396 42.969 38.1174 42.969C35.715 42.969 33.804 45.1532 33.804 47.8355C33.804 50.5172 35.7528 52.7014 38.1174 52.7014C40.5204 52.7014 42.4314 50.5172 42.4314 47.8355ZM58.3806 47.8355C58.4184 45.1726 56.4888 42.969 54.0672 42.969C51.6642 42.969 49.7532 45.1532 49.7532 47.8355C49.7532 50.5172 51.702 52.7014 54.0672 52.7014C56.4888 52.7014 58.3806 50.5172 58.3806 47.8355Z" fill="#5865F2"/>
</svg>
