<svg width="92" height="92" viewBox="0 0 92 92" fill="none" xmlns="http://www.w3.org/2000/svg">
<path d="M69.271 31.2947C67.7519 31.9485 66.155 32.4037 64.5195 32.6492C65.2841 32.5181 66.4092 31.1418 66.857 30.5847C67.5374 29.7445 68.0559 28.7852 68.3862 27.7557C68.3862 27.6792 68.4627 27.57 68.3862 27.5154C68.3477 27.4944 68.3045 27.4833 68.2606 27.4833C68.2167 27.4833 68.1735 27.4944 68.135 27.5154C66.3591 28.4771 64.4691 29.2111 62.5097 29.7C62.4414 29.7208 62.3687 29.7227 62.2994 29.7054C62.2301 29.6881 62.1669 29.6522 62.1164 29.6017C61.9639 29.4201 61.7997 29.2486 61.6249 29.0883C60.8257 28.3722 59.919 27.7862 58.9379 27.3515C57.6135 26.8082 56.183 26.5729 54.7544 26.6634C53.3682 26.7509 52.0148 27.1227 50.7784 27.7557C49.5609 28.423 48.4909 29.3296 47.6326 30.4209C46.7298 31.5442 46.078 32.8477 45.7211 34.2439C45.4267 35.572 45.3934 36.9446 45.6228 38.2854C45.6228 38.5148 45.6228 38.5476 45.4261 38.5148C37.6381 37.3679 31.2481 34.6044 26.0269 28.6732C25.7976 28.4111 25.6774 28.4111 25.4917 28.6732C23.2197 32.1249 24.323 37.5864 27.1629 40.2843C27.5452 40.6448 27.9385 40.9943 28.3535 41.322C27.0514 41.2296 25.7811 40.8767 24.6179 40.2843C24.3994 40.1424 24.2793 40.2188 24.2683 40.481C24.2374 40.8444 24.2374 41.2098 24.2683 41.5733C24.4963 43.315 25.1827 44.965 26.2574 46.3545C27.3321 47.744 28.7566 48.8231 30.3852 49.4815C30.7822 49.6515 31.1959 49.7797 31.6195 49.8638C30.4141 50.1011 29.1777 50.138 27.9603 49.973C27.6982 49.9184 27.5998 50.0604 27.6982 50.3116C29.3038 54.6808 32.7883 56.0134 35.3442 56.7562C35.6938 56.8108 36.0433 56.8108 36.4365 56.8982C36.4365 56.8982 36.4365 56.8982 36.371 56.9637C35.6173 58.34 32.5698 59.2685 31.1717 59.7491C28.6197 60.6658 25.8988 61.0161 23.1979 60.7759C22.7719 60.7103 22.6736 60.7212 22.5644 60.7759C22.4551 60.8305 22.5644 60.9506 22.6845 61.0599C23.2307 61.4203 23.7768 61.7371 24.3448 62.0429C26.0357 62.9652 27.8234 63.6979 29.6752 64.2275C39.2656 66.8709 50.0575 64.9266 57.2557 57.772C62.9138 52.1576 64.9018 44.4132 64.9018 36.6579C64.9018 36.363 65.2623 36.1882 65.4698 36.0353C66.9013 34.92 68.1633 33.6028 69.2164 32.1249C69.3988 31.9046 69.4923 31.6241 69.4785 31.3384C69.4785 31.1746 69.4785 31.2074 69.271 31.2947Z" fill="#33CCFF"/>
</svg>
