<svg width="92" height="92" viewBox="0 0 92 92" fill="none" xmlns="http://www.w3.org/2000/svg">
<path d="M69.2708 31.2947C67.7518 31.9484 66.1548 32.4036 64.5193 32.6491C65.2839 32.518 66.409 31.1417 66.8568 30.5847C67.5372 29.7444 68.0557 28.7851 68.3861 27.7556C68.3861 27.6792 68.4625 27.5699 68.3861 27.5153C68.3475 27.4943 68.3043 27.4833 68.2604 27.4833C68.2165 27.4833 68.1734 27.4943 68.1348 27.5153C66.359 28.477 64.469 29.211 62.5095 29.6999C62.4412 29.7208 62.3685 29.7226 62.2993 29.7053C62.23 29.688 62.1667 29.6521 62.1163 29.6016C61.9638 29.42 61.7996 29.2485 61.6248 29.0882C60.8255 28.3722 59.9188 27.7861 58.9377 27.3515C57.6133 26.8081 56.1828 26.5728 54.7542 26.6633C53.368 26.7509 52.0146 27.1227 50.7783 27.7556C49.5608 28.4229 48.4907 29.3295 47.6325 30.4208C46.7297 31.5441 46.0779 32.8477 45.7209 34.2439C45.4266 35.5719 45.3932 36.9445 45.6226 38.2853C45.6226 38.5147 45.6226 38.5475 45.426 38.5147C37.638 37.3678 31.248 34.6043 26.0269 28.6731C25.7975 28.411 25.6773 28.411 25.4916 28.6731C23.2197 32.1248 24.3229 37.5863 27.1629 40.2842C27.5452 40.6447 27.9384 40.9942 28.3535 41.3219C27.0513 41.2295 25.781 40.8766 24.6178 40.2842C24.3993 40.1422 24.2792 40.2187 24.2683 40.4809C24.2373 40.8443 24.2373 41.2097 24.2683 41.5731C24.4962 43.3149 25.1826 44.9649 26.2573 46.3544C27.3321 47.7439 28.7566 48.823 30.3851 49.4814C30.7821 49.6514 31.1958 49.7795 31.6194 49.8637C30.414 50.101 29.1777 50.1379 27.9602 49.9729C27.6981 49.9183 27.5998 50.0603 27.6981 50.3115C29.3038 54.6807 32.7882 56.0133 35.3441 56.756C35.6937 56.8107 36.0432 56.8107 36.4364 56.898C36.4364 56.898 36.4364 56.898 36.3709 56.9636C35.6172 58.3399 32.5697 59.2683 31.1716 59.7489C28.6196 60.6656 25.8988 61.0159 23.1978 60.7757C22.7718 60.7102 22.6735 60.7211 22.5643 60.7757C22.4551 60.8303 22.5643 60.9505 22.6844 61.0597C23.2306 61.4201 23.7767 61.7369 24.3447 62.0428C26.0357 62.965 27.8233 63.6977 29.6751 64.2273C39.2655 66.8707 50.0574 64.9264 57.2556 57.7719C62.9137 52.1575 64.9016 44.4131 64.9016 36.6578C64.9016 36.3629 65.2621 36.1881 65.4696 36.0352C66.9011 34.9199 68.1631 33.6027 69.2162 32.1248C69.3986 31.9045 69.4921 31.624 69.4784 31.3383C69.4784 31.1745 69.4784 31.2073 69.2708 31.2947Z" fill="#33CCFF"/>
</svg>
