<svg width="92" height="92" viewBox="0 0 92 92" fill="none" xmlns="http://www.w3.org/2000/svg">
<path d="M62.7736 30.7082C68.1946 38.7278 70.8718 47.7738 69.871 58.1878C69.8668 58.2319 69.844 58.2723 69.808 58.2989C65.7028 61.3319 61.7254 63.1727 57.8038 64.3934C57.7733 64.4027 57.7406 64.4022 57.7104 64.3919C57.6802 64.3816 57.6539 64.3621 57.6352 64.336C56.7293 63.0676 55.9061 61.7304 55.1849 60.3262C55.1435 60.2434 55.1813 60.1438 55.2665 60.1112C56.5739 59.6156 57.817 59.0215 59.0128 58.3182C59.107 58.2627 59.113 58.1268 59.026 58.0616C58.7722 57.8721 58.5208 57.6729 58.2802 57.4736C58.2352 57.4368 58.1746 57.4296 58.1236 57.4543C50.3603 61.0615 41.8559 61.0615 34.0007 57.4543C33.9497 57.4314 33.8891 57.4392 33.8453 57.4754C33.6053 57.6747 33.3533 57.8721 33.1019 58.0616C33.0149 58.1268 33.0221 58.2627 33.1169 58.3182C34.3127 59.0083 35.5559 59.6156 36.8615 60.1137C36.9461 60.1463 36.9863 60.2434 36.9443 60.3262C36.2387 61.7322 35.4155 63.0694 34.4927 64.3378C34.4525 64.3891 34.3865 64.4127 34.3241 64.3934C30.4212 63.1727 26.4438 61.3319 22.3386 58.2989C22.3044 58.2723 22.2798 58.2301 22.2762 58.186C21.4398 49.1781 23.1444 40.0572 29.367 30.7064C29.382 30.6816 29.4048 30.6623 29.4312 30.6508C32.4929 29.2369 35.7731 28.1967 39.2015 27.6027C39.2639 27.593 39.3263 27.622 39.3587 27.6776C39.7823 28.4322 40.2665 29.3999 40.5941 30.1908C44.2079 29.6354 47.8781 29.6354 51.5675 30.1908C51.8951 29.4168 52.3625 28.4322 52.7843 27.6776C52.7993 27.65 52.8226 27.6279 52.8508 27.6145C52.879 27.601 52.9108 27.5969 52.9415 27.6027C56.3717 28.1986 59.6518 29.2387 62.7112 30.6508C62.7382 30.6623 62.7604 30.6816 62.7736 30.7082ZM42.4313 47.8354C42.4691 45.1724 40.5395 42.9689 38.1173 42.9689C35.7149 42.9689 33.8039 45.1531 33.8039 47.8354C33.8039 50.5171 35.7527 52.7013 38.1173 52.7013C40.5203 52.7013 42.4313 50.5171 42.4313 47.8354ZM58.3804 47.8354C58.4182 45.1724 56.4887 42.9689 54.0671 42.9689C51.6641 42.9689 49.7531 45.1531 49.7531 47.8354C49.7531 50.5171 51.7019 52.7013 54.0671 52.7013C56.4887 52.7013 58.3804 50.5171 58.3804 47.8354Z" fill="#5865F2"/>
</svg>
